<svg width="23" height="22" viewBox="0 0 23 22" fill="none" xmlns="http://www.w3.org/2000/svg">
<path d="M21.1 9.2H11.7V12.9H17.2C17.1 13.8 16.5 15.2 15.2 16.1C14.4 16.7 13.2 17.1 11.7 17.1C9.10001 17.1 6.80001 15.4 6.00001 12.9C5.80001 12.3 5.70001 11.6 5.70001 10.9C5.70001 10.2 5.80001 9.5 6.00001 8.9C6.10001 8.7 6.10001 8.5 6.20001 8.4C7.10001 6.3 9.20001 4.8 11.7 4.8C13.6 4.8 14.8 5.6 15.6 6.3L18.4 3.5C16.7 2 14.4 1 11.7 1C7.80001 1 4.40001 3.2 2.80001 6.5C2.10001 7.9 1.70001 9.4 1.70001 11C1.70001 12.6 2.10001 14.1 2.80001 15.5C4.40001 18.8 7.80001 21 11.7 21C14.4 21 16.7 20.1 18.3 18.6C20.2 16.9 21.3 14.3 21.3 11.2C21.3 10.4 21.2 9.8 21.1 9.2Z" stroke="#3B3B3B" stroke-width="1.5" stroke-miterlimit="10" stroke-linecap="round" stroke-linejoin="round"/>
</svg>
